<svg xmlns="http://www.w3.org/2000/svg" viewBox="0 0 601.21 599.41"><defs><style>.cls-1{fill:#053030;}.cls-2{fill:#28936f;}.cls-3{fill:#ffc639;}.cls-4{fill:#074735;}.cls-5{fill:#042807;}.cls-6{fill:#10420d;}.cls-7{fill:#1d661b;}.cls-8{fill:#398e35;}.cls-9{fill:#140704;}.cls-10{fill:#683b2f;}.cls-11{fill:#381b14;}.cls-12{fill:#4f291d;}.cls-13{fill:#8dccc0;}.cls-14,.cls-18{fill:#fff;}.cls-14{stroke:#261111;}.cls-15{fill:#261111;}.cls-16{fill:#fff7e6;}.cls-17{fill:#afd4e0;}.cls-19{fill:#101847;}.cls-20{fill:#fc763a;}.cls-21{fill:#d1532c;}.cls-22{fill:#ff8080;}.cls-23{fill:#011c02;}.cls-24{fill:#ffc5c5;}</style></defs><title>Asset 3</title><g id="Layer_2" data-name="Layer 2"><g id="Layer_4" data-name="Layer 4"><polygon class="cls-1" points="600.54 18.54 601.21 18.54 601.21 0 0.3 0 0.3 429.39 600.54 429.39 600.54 18.54"/><rect class="cls-2" x="0.3" y="455.9" width="600.24" height="143.51"/><circle class="cls-3" cx="329.21" cy="162.44" r="79.75"/><path class="cls-4" d="M600.54,218.84c-27-22-64.71-39.77-116.35-39.77-54.08,0-77.89,28.6-157.6,28.6-52.72,0-98.51-72.53-184.8-72.53C71,135.14,26.61,164.39,0,193.29V484.35H600.54Z"/></g><g id="Layer_5" data-name="Layer 5"><polygon class="cls-5" points="444.93 339.91 263.85 339.91 354.39 127.97 444.93 339.91"/><polygon class="cls-5" points="363.97 294.02 249.14 294.02 306.55 159.62 363.97 294.02"/><polygon class="cls-5" points="282.09 420.49 50.41 426.41 177.61 157.41 282.09 420.49"/><polygon class="cls-5" points="600.54 440.82 508.42 197.97 381.22 466.97 600.54 481.86 600.54 440.82"/><polygon class="cls-5" points="600.54 315.22 568.91 235.59 479.41 424.85 600.54 424.85 600.54 315.22"/></g><g id="Layer_3" data-name="Layer 3"><rect class="cls-6" x="63.77" y="209.51" width="85.8" height="133.57" rx="42.9"/><path class="cls-7" d="M299.35,283.08a33.89,33.89,0,0,1-52.26,28.5,46.59,46.59,0,1,1,8.22-60.88,34,34,0,0,1,44,32.38Z"/><circle class="cls-6" cx="229.5" cy="247.18" r="7.17"/><circle class="cls-6" cx="234" cy="294.02" r="7.17"/><path class="cls-8" d="M262.54,267h0a18.68,18.68,0,0,1,18.68,18.68v0a0,0,0,0,1,0,0h0A18.68,18.68,0,0,1,262.54,267v0A0,0,0,0,1,262.54,267Z" transform="translate(-4.42 548.17) rotate(-90)"/><path class="cls-8" d="M236.32,257.92h0A18.68,18.68,0,0,1,255,276.6v0a0,0,0,0,1,0,0h0a18.68,18.68,0,0,1-18.68-18.68v0A0,0,0,0,1,236.32,257.92Z" transform="translate(491.32 534.52) rotate(-180)"/><rect class="cls-9" x="148.02" y="267.26" width="73.29" height="98"/><path class="cls-10" d="M221.79,270.54H147.5a5.66,5.66,0,0,1-4.76-8.74l28.16-43.55a16.2,16.2,0,0,1,27.16-.06l28.47,43.59A5.66,5.66,0,0,1,221.79,270.54Z"/><path class="cls-11" d="M226.53,261.78l-28.47-43.59a16.08,16.08,0,0,0-13.31-7.33v59.68h37A5.66,5.66,0,0,0,226.53,261.78Z"/><rect class="cls-11" x="169.45" y="280.36" width="30.6" height="52.49"/><rect class="cls-12" x="166.25" y="332.85" width="37.01" height="5.82"/><rect class="cls-3" x="173.67" y="284.5" width="22.25" height="44.7"/><rect class="cls-11" x="182.82" y="281.93" width="4.53" height="49.52"/><rect class="cls-11" x="182.82" y="293.21" width="4.53" height="26.96" transform="translate(491.77 121.61) rotate(90)"/><rect class="cls-7" x="16.97" y="280.36" width="80.04" height="166.79" rx="40.02"/></g><g id="Layer_2-2" data-name="Layer 2"><path class="cls-13" d="M163.32,89.17a1.8,1.8,0,0,1,0-.22A14.14,14.14,0,0,0,137,83.06,19.73,19.73,0,0,0,99.9,75.47a19.74,19.74,0,0,0-35,11.81,2.81,2.81,0,0,0,0,.29,12.74,12.74,0,0,0,12.78,12.92h75A10.63,10.63,0,0,0,163.32,89.17Z"/><path class="cls-13" d="M278.73,46c0-.07,0-.14,0-.22a14.14,14.14,0,0,0-26.26-5.89,19.74,19.74,0,0,0-37.15-7.59,19.75,19.75,0,0,0-35,11.82v.28a12.74,12.74,0,0,0,12.77,12.92h75A10.61,10.61,0,0,0,278.73,46Z"/><path class="cls-13" d="M590.34,77.83c0-.51,0-1-.05-1.55A38.32,38.32,0,0,0,515,68.62a25.32,25.32,0,0,0-34.08,12.59,25.14,25.14,0,0,0-16-4.65,25.47,25.47,0,0,0-23.7,21.25,1.87,1.87,0,0,0,0,.25,8.28,8.28,0,0,0,8.25,9.42H560.62C577,107.48,590.62,94.22,590.34,77.83Z"/><rect class="cls-6" x="368.79" y="172.31" width="98.38" height="189.59" rx="49.19"/><rect class="cls-14" x="329.29" y="379.88" width="20.77" height="52.49"/><rect class="cls-14" x="326.47" y="432.37" width="26.42" height="5.82"/><circle class="cls-7" cx="122.11" cy="485.64" r="7.17"/><circle class="cls-7" cx="480.3" cy="317.94" r="79.89"/><path class="cls-15" d="M481.76,451.44a4.5,4.5,0,0,1-4.5-4.5v-63.2l-31.6-48.62a4.5,4.5,0,1,1,7.54-4.91l24.06,37V270a4.5,4.5,0,0,1,9,0V446.94A4.51,4.51,0,0,1,481.76,451.44Z"/><path class="cls-8" d="M426,294h0a18.68,18.68,0,0,1,18.68,18.68v0a0,0,0,0,1,0,0h0A18.68,18.68,0,0,1,426,294v0A0,0,0,0,1,426,294Z" transform="translate(870.7 606.71) rotate(-180)"/><path class="cls-8" d="M497.06,294h0a18.68,18.68,0,0,1,18.68,18.68v0a0,0,0,0,1,0,0h0A18.68,18.68,0,0,1,497.06,294v0A0,0,0,0,1,497.06,294Z" transform="translate(203.04 809.75) rotate(-90)"/><path class="cls-8" d="M528.1,330.57h0a18.68,18.68,0,0,1,18.68,18.68v0a0,0,0,0,1,0,0h0a18.68,18.68,0,0,1-18.68-18.68v0A0,0,0,0,1,528.1,330.57Z" transform="translate(1074.88 679.83) rotate(-180)"/><path class="cls-8" d="M497.06,355h0a18.68,18.68,0,0,1,18.68,18.68v0a0,0,0,0,1,0,0h0A18.68,18.68,0,0,1,497.06,355v0A0,0,0,0,1,497.06,355Z" transform="translate(142.04 870.76) rotate(-90)"/><path class="cls-8" d="M448.49,259.69h0a18.68,18.68,0,0,1,18.68,18.68v0a0,0,0,0,1,0,0h0a18.68,18.68,0,0,1-18.68-18.68v0A0,0,0,0,1,448.49,259.69Z" transform="translate(188.8 726.86) rotate(-90)"/><path class="cls-8" d="M504.23,258.29h0A18.68,18.68,0,0,1,522.9,277v0a0,0,0,0,1,0,0h0a18.68,18.68,0,0,1-18.68-18.68v0A0,0,0,0,1,504.23,258.29Z" transform="translate(1027.13 535.26) rotate(-180)"/><circle class="cls-6" cx="506.4" cy="335.54" r="7.17"/><circle class="cls-6" cx="462.83" cy="308.35" r="7.17"/><circle class="cls-6" cx="448.49" cy="367.58" r="7.17"/><circle class="cls-6" cx="422.95" cy="330.22" r="7.17"/><circle class="cls-6" cx="431.43" cy="272.67" r="7.17"/><circle class="cls-6" cx="541.55" cy="299.55" r="7.17"/><path class="cls-3" d="M356.1,51.13h0A13.25,13.25,0,0,0,344.73,61.6l-.24,1.14L344.05,61a13.28,13.28,0,0,0-11.13-9.87h0l1.77-.48a13.27,13.27,0,0,0,9.3-9.2l.54-1.93.25,1.14a13.26,13.26,0,0,0,9.6,10Z"/><path class="cls-3" d="M198,105.44h0a13.25,13.25,0,0,0-11.37,10.47l-.24,1.14-.44-1.74a13.28,13.28,0,0,0-11.13-9.87h0l1.77-.48a13.24,13.24,0,0,0,9.29-9.2l.55-1.93.25,1.14a13.28,13.28,0,0,0,9.6,10Z"/><path class="cls-3" d="M488.81,155.64h0a13.25,13.25,0,0,0-11.37,10.47l-.24,1.14-.44-1.74a13.28,13.28,0,0,0-11.13-9.87h0l1.77-.48a13.27,13.27,0,0,0,9.3-9.2l.54-1.93.25,1.14a13.26,13.26,0,0,0,9.6,10Z"/><circle class="cls-16" cx="391.39" cy="62.74" r="5.27"/><circle class="cls-16" cx="37.41" cy="119.45" r="5.27"/><circle class="cls-16" cx="578.47" cy="24.62" r="5.27"/><circle class="cls-16" cx="534.39" cy="129.98" r="5.27"/><circle class="cls-16" cx="81.48" cy="24.62" r="5.27"/><circle class="cls-16" cx="234.62" cy="124.72" r="5.27"/></g><g id="Bush"><path class="cls-8" d="M39.29,453.84h0A18.68,18.68,0,0,1,58,472.52v0a0,0,0,0,1,0,0h0a18.68,18.68,0,0,1-18.68-18.68v0A0,0,0,0,1,39.29,453.84Z" transform="translate(-414.55 511.81) rotate(-90)"/><circle class="cls-7" cx="93.66" cy="448.28" r="7.17"/><path class="cls-6" d="M299.75,484.35V365.6H227.09a47.35,47.35,0,0,0-94.7,0c0,.57,0,1.14,0,1.71a47.36,47.36,0,0,0-60,45.64c0,.57,0,1.13,0,1.69A47.35,47.35,0,0,0,12.58,460.3v.27a24.15,24.15,0,0,0,24.26,23.78Z"/><circle class="cls-7" cx="184.67" cy="429.7" r="7.17"/><path class="cls-8" d="M175.2,387.69h0a18.68,18.68,0,0,1,18.68,18.68v0a0,0,0,0,1,0,0h0a18.68,18.68,0,0,1-18.68-18.68v0A0,0,0,0,1,175.2,387.69Z" transform="translate(369.07 794.06) rotate(180)"/><path class="cls-8" d="M116.11,428.47h0a18.68,18.68,0,0,1,18.68,18.68v0a0,0,0,0,1,0,0h0a18.68,18.68,0,0,1-18.68-18.68v0A0,0,0,0,1,116.11,428.47Z" transform="translate(250.9 875.61) rotate(180)"/><path class="cls-8" d="M112.56,391.46h0a18.68,18.68,0,0,1,18.68,18.68v0a0,0,0,0,1,0,0h0a18.68,18.68,0,0,1-18.68-18.68v0a0,0,0,0,1,0,0Z" transform="translate(243.79 801.6) rotate(180)"/><path class="cls-8" d="M50.81,422.43h0a18.68,18.68,0,0,1,18.68,18.68v0a0,0,0,0,1,0,0h0a18.68,18.68,0,0,1-18.68-18.68v0A0,0,0,0,1,50.81,422.43Z" transform="translate(120.3 863.54) rotate(180)"/><path class="cls-8" d="M182.86,332.47h0a18.68,18.68,0,0,1,18.68,18.68v0a0,0,0,0,1,0,0h0a18.68,18.68,0,0,1-18.68-18.68v0A0,0,0,0,1,182.86,332.47Z" transform="translate(-149.61 534.01) rotate(-90)"/><path class="cls-8" d="M141.83,415.82h0a18.68,18.68,0,0,1,18.68,18.68v0a0,0,0,0,1,0,0h0a18.68,18.68,0,0,1-18.68-18.68v0A0,0,0,0,1,141.83,415.82Z" transform="translate(-273.99 576.33) rotate(-90)"/><circle class="cls-7" cx="152.18" cy="457.62" r="7.17"/><circle class="cls-7" cx="169.99" cy="369.62" r="7.17"/><circle class="cls-7" cx="148.02" cy="393.63" r="7.17"/><circle class="cls-7" cx="96.19" cy="408.47" r="7.17"/><circle class="cls-7" cx="32.81" cy="446.54" r="7.17"/></g><g id="Layer_7" data-name="Layer 7"><rect class="cls-11" x="316.81" y="364.36" width="107.45" height="119.99"/><path class="cls-7" d="M148.65,502.78c14.67,0,19.39-20.33,5.94-26.22a13,13,0,0,0-5.2-1.15,25.65,25.65,0,0,0-10.15,2.08,25.82,25.82,0,0,0-46.17-6.18,25.82,25.82,0,0,0-42.26,19.9v.12a11.65,11.65,0,0,0,11.73,11.45Z"/><path class="cls-8" d="M367,500.52a43.17,43.17,0,0,1,3.56-16.76,43.78,43.78,0,0,1,40.19-26.43,43.79,43.79,0,0,1-36.63,43.19c-1.17.19-2.36.33-3.56.43Z"/><path class="cls-8" d="M374.1,500.52c-1.17.19-2.36.33-3.56.43-1.2-.1-2.39-.24-3.56-.43a43.78,43.78,0,0,1-36.64-43.19,43.72,43.72,0,0,1,43.76,43.19Z"/><path class="cls-17" d="M98.17,439.37h1.21a7.79,7.79,0,0,1,7.79,7.79v0a5.65,5.65,0,0,1-5.65,5.65h0A7.79,7.79,0,0,1,93.73,445v-1.21a4.45,4.45,0,0,1,4.45-4.45Z"/><path class="cls-17" d="M84.73,425.93h1.21a7.79,7.79,0,0,1,7.79,7.79v0a5.65,5.65,0,0,1-5.65,5.65h0a7.79,7.79,0,0,1-7.79-7.79v-1.21A4.45,4.45,0,0,1,84.73,425.93Z" transform="translate(174.01 865.31) rotate(-180)"/><path class="cls-17" d="M98.17,425.93h1.21a7.79,7.79,0,0,1,7.79,7.79v0a5.65,5.65,0,0,1-5.65,5.65h0a7.79,7.79,0,0,1-7.79-7.79v-1.21a4.45,4.45,0,0,1,4.45-4.45Z" transform="translate(-332.21 533.1) rotate(-90)"/><path class="cls-17" d="M84.73,439.37h1.21a7.79,7.79,0,0,1,7.79,7.79v0a5.65,5.65,0,0,1-5.65,5.65h0A7.79,7.79,0,0,1,80.29,445v-1.21a4.45,4.45,0,0,1,4.45-4.45Z" transform="translate(533.1 359.08) rotate(90)"/><path class="cls-18" d="M101,432.65h1.21a7.79,7.79,0,0,1,7.79,7.79v0a5.65,5.65,0,0,1-5.65,5.65h0a7.79,7.79,0,0,1-7.79-7.79V437.1a4.45,4.45,0,0,1,4.45-4.45Z" transform="translate(-280.45 201.68) rotate(-45)"/><path class="cls-18" d="M82,432.65h1.21a7.79,7.79,0,0,1,7.79,7.79v0a5.65,5.65,0,0,1-5.65,5.65h0a7.79,7.79,0,0,1-7.79-7.79V437.1A4.45,4.45,0,0,1,82,432.65Z" transform="translate(454.46 690.5) rotate(135)"/><path class="cls-18" d="M91.45,423.15h1.21a7.79,7.79,0,0,1,7.79,7.79v0a5.65,5.65,0,0,1-5.65,5.65h0A7.79,7.79,0,0,1,87,428.8V427.6a4.45,4.45,0,0,1,4.45-4.45Z" transform="translate(-143.96 800.11) rotate(-135)"/><path class="cls-18" d="M91.45,442.15h1.21a7.79,7.79,0,0,1,7.79,7.79v0a5.65,5.65,0,0,1-5.65,5.65h0A7.79,7.79,0,0,1,87,447.81V446.6a4.45,4.45,0,0,1,4.45-4.45Z" transform="translate(344.85 65.2) rotate(45)"/><circle class="cls-18" cx="93.79" cy="438.83" r="4.37"/><circle class="cls-19" cx="93.73" cy="439.37" r="2.39"/><path class="cls-6" d="M448.66,476.6a34.22,34.22,0,0,0,15.76,18.72h65.25a13.61,13.61,0,0,0,13.49-16c0-.12,0-.24-.07-.35a26.2,26.2,0,0,0-28.5-20.75l-.19,0a34.2,34.2,0,0,0-47.5-23.95,34.18,34.18,0,1,0-18.24,42.28Z"/><path class="cls-7" d="M474.48,492v-.25a18,18,0,0,0-17.42-18.14,17.75,17.75,0,0,0-9.24,2.34,25.39,25.39,0,0,0-45.77,3.41,17.54,17.54,0,0,0-6.62-1.28,17.9,17.9,0,0,0-17.9,17.9V496a7,7,0,0,0,7,6.8H463.1A11.32,11.32,0,0,0,474.48,492Z"/><path class="cls-18" d="M486.14,496h-13V478a21.61,21.61,0,0,1,21.58-21.59,8.59,8.59,0,0,0,8.58-8.58V411.23h13v36.58a21.6,21.6,0,0,1-21.58,21.58,8.59,8.59,0,0,0-8.58,8.59Z"/><path class="cls-20" d="M558.73,432.93h-99.1A43.41,43.41,0,0,1,503,389.53h12.29a43.39,43.39,0,0,1,43.4,43.4Z"/><circle class="cls-21" cx="519.25" cy="428.61" r="11.13"/><path class="cls-21" d="M477.05,428.62a11.14,11.14,0,0,1-17.42,9.19v-4.88a43.5,43.5,0,0,1,2.59-14.81,11,11,0,0,1,3.69-.63A11.13,11.13,0,0,1,477.05,428.62Z"/><rect class="cls-18" x="459.63" y="432.93" width="99.1" height="7.95"/><path class="cls-21" d="M557.94,424.68a11.13,11.13,0,1,1-9.51-19.82A43.13,43.13,0,0,1,557.94,424.68Z"/><path class="cls-21" d="M530.38,393.25a11.14,11.14,0,1,1-21.63-3.72h6.58a43.35,43.35,0,0,1,15,2.66C530.36,392.54,530.38,392.89,530.38,393.25Z"/><circle class="cls-21" cx="489.59" cy="409.91" r="11.13"/><path class="cls-17" d="M440.59,411.28h1.21a7.79,7.79,0,0,1,7.79,7.79v0a5.65,5.65,0,0,1-5.65,5.65h0a7.79,7.79,0,0,1-7.79-7.79v-1.21A4.45,4.45,0,0,1,440.59,411.28Z"/><path class="cls-17" d="M427.15,397.85h1.21a7.79,7.79,0,0,1,7.79,7.79v0a5.65,5.65,0,0,1-5.65,5.65h0a7.79,7.79,0,0,1-7.79-7.79v-1.21a4.45,4.45,0,0,1,4.45-4.45Z" transform="translate(858.85 809.13) rotate(180)"/><path class="cls-17" d="M440.59,397.85h1.21a7.79,7.79,0,0,1,7.79,7.79v0a5.65,5.65,0,0,1-5.65,5.65h0a7.79,7.79,0,0,1-7.79-7.79v-1.21a4.45,4.45,0,0,1,4.45-4.45Z" transform="translate(38.3 847.43) rotate(-90)"/><path class="cls-17" d="M427.15,411.28h1.21a7.79,7.79,0,0,1,7.79,7.79v0a5.65,5.65,0,0,1-5.65,5.65h0a7.79,7.79,0,0,1-7.79-7.79v-1.21A4.45,4.45,0,0,1,427.15,411.28Z" transform="translate(847.43 -11.42) rotate(90)"/><path class="cls-18" d="M443.37,404.56h1.21a7.79,7.79,0,0,1,7.79,7.79v0a5.65,5.65,0,0,1-5.65,5.65h0a7.79,7.79,0,0,1-7.79-7.79V409A4.45,4.45,0,0,1,443.37,404.56Z" transform="translate(-160.3 435.58) rotate(-45)"/><path class="cls-18" d="M424.37,404.56h1.21a7.79,7.79,0,0,1,7.79,7.79v0a5.65,5.65,0,0,1-5.65,5.65h0a7.79,7.79,0,0,1-7.79-7.79V409A4.45,4.45,0,0,1,424.37,404.56Z" transform="translate(1019.14 400.42) rotate(135)"/><path class="cls-18" d="M433.87,395.06h1.21a7.79,7.79,0,0,1,7.79,7.79v0a5.65,5.65,0,0,1-5.65,5.65h0a7.79,7.79,0,0,1-7.79-7.79v-1.21a4.45,4.45,0,0,1,4.45-4.45Z" transform="translate(460.44 994.28) rotate(-135)"/><path class="cls-18" d="M433.87,414.07h1.21a7.79,7.79,0,0,1,7.79,7.79v0a5.65,5.65,0,0,1-5.65,5.65h0a7.79,7.79,0,0,1-7.79-7.79v-1.21a4.45,4.45,0,0,1,4.45-4.45Z" transform="translate(425.28 -185.15) rotate(45)"/><circle class="cls-18" cx="436.21" cy="410.74" r="4.37"/><circle class="cls-19" cx="436.14" cy="411.28" r="2.39"/><path class="cls-17" d="M375,471.84h1.21a7.79,7.79,0,0,1,7.79,7.79v0a5.65,5.65,0,0,1-5.65,5.65h0a7.79,7.79,0,0,1-7.79-7.79v-1.21a4.45,4.45,0,0,1,4.45-4.45Z"/><path class="cls-17" d="M361.54,458.41h1.21a7.79,7.79,0,0,1,7.79,7.79v0a5.65,5.65,0,0,1-5.65,5.65h0a7.79,7.79,0,0,1-7.79-7.79v-1.21A4.45,4.45,0,0,1,361.54,458.41Z" transform="translate(727.63 930.25) rotate(-180)"/><path class="cls-17" d="M375,458.41h1.21a7.79,7.79,0,0,1,7.79,7.79v0a5.65,5.65,0,0,1-5.65,5.65h0a7.79,7.79,0,0,1-7.79-7.79v-1.21A4.45,4.45,0,0,1,375,458.41Z" transform="translate(-87.87 842.38) rotate(-90)"/><path class="cls-17" d="M361.54,471.84h1.21a7.79,7.79,0,0,1,7.79,7.79v0a5.65,5.65,0,0,1-5.65,5.65h0a7.79,7.79,0,0,1-7.79-7.79v-1.21A4.45,4.45,0,0,1,361.54,471.84Z" transform="translate(842.38 114.75) rotate(90)"/><path class="cls-18" d="M377.77,465.13H379a7.79,7.79,0,0,1,7.79,7.79v0a5.65,5.65,0,0,1-5.65,5.65h0a7.79,7.79,0,0,1-7.79-7.79v-1.21A4.45,4.45,0,0,1,377.77,465.13Z" transform="translate(-222.33 406.93) rotate(-45)"/><path class="cls-18" d="M358.76,465.13H360a7.79,7.79,0,0,1,7.79,7.79v0a5.65,5.65,0,0,1-5.65,5.65h0a7.79,7.79,0,0,1-7.79-7.79v-1.21A4.45,4.45,0,0,1,358.76,465.13Z" transform="translate(949.97 550.2) rotate(135)"/><path class="cls-18" d="M368.26,455.62h1.21a7.79,7.79,0,0,1,7.79,7.79v0a5.65,5.65,0,0,1-5.65,5.65h0a7.79,7.79,0,0,1-7.79-7.79v-1.21a4.45,4.45,0,0,1,4.45-4.45Z" transform="translate(305.62 1051.28) rotate(-135)"/><path class="cls-18" d="M368.26,474.63h1.21a7.79,7.79,0,0,1,7.79,7.79v0a5.65,5.65,0,0,1-5.65,5.65h0a7.79,7.79,0,0,1-7.79-7.79v-1.21a4.45,4.45,0,0,1,4.45-4.45Z" transform="translate(448.89 -121.03) rotate(45)"/><circle class="cls-18" cx="370.6" cy="471.3" r="4.37"/><circle class="cls-19" cx="370.54" cy="471.84" r="2.39"/><path class="cls-22" d="M467,451.44v5.69a9.8,9.8,0,1,1-19.6,0v-5.69l5.87,3.53,3.93-3.44,3.92,3.44Z"/><polygon class="cls-10" points="317.31 364.36 316.81 364.36 316.81 484.35 187.98 484.35 187.98 364.36 252.19 281.74 317.31 364.36"/><path class="cls-9" d="M242.32,419.48h0a25.6,25.6,0,0,1,25.6,25.6v39.27a0,0,0,0,1,0,0h-51.2a0,0,0,0,1,0,0V445.08A25.6,25.6,0,0,1,242.32,419.48Z"/><path class="cls-12" d="M263.59,484.35V446.14c0-12.27-9.52-22.21-21.27-22.21S221,433.87,221,446.14v38.21Z"/><rect class="cls-10" x="283.98" y="245.8" width="23.86" height="60.98"/><polygon class="cls-9" points="307.84 245.8 319.95 245.8 319.95 294.31 307.84 306.79 307.84 245.8"/><polygon class="cls-12" points="424.26 364.36 317.31 364.36 249.69 281.74 359.14 281.74 424.26 364.36"/><rect class="cls-9" x="334.99" y="380.55" width="30.6" height="52.49"/><rect class="cls-12" x="331.79" y="433.04" width="37.01" height="5.82"/><rect class="cls-3" x="339.21" y="384.69" width="22.25" height="44.7"/><rect class="cls-9" x="348.36" y="382.12" width="4.53" height="49.52"/><rect class="cls-9" x="348.36" y="393.4" width="4.53" height="26.96" transform="translate(757.5 56.26) rotate(90)"/><rect class="cls-9" x="224.39" y="364.36" width="34.42" height="42.02"/><rect class="cls-12" x="220.79" y="406.38" width="41.63" height="5.82"/><rect class="cls-3" x="229.14" y="367.68" width="25.02" height="35.78"/><rect class="cls-9" x="238.37" y="365.62" width="4.53" height="39.64"/><rect class="cls-9" x="238.37" y="369.79" width="4.53" height="29.8" transform="translate(625.33 144.06) rotate(90)"/><rect class="cls-9" x="383.61" y="380.55" width="30.6" height="52.49"/><rect class="cls-12" x="380.41" y="433.04" width="37.01" height="5.82"/><rect class="cls-3" x="387.83" y="384.69" width="22.25" height="44.7"/><rect class="cls-9" x="396.98" y="382.12" width="4.53" height="49.52"/><rect class="cls-9" x="396.98" y="393.4" width="4.53" height="26.96" transform="translate(806.12 7.64) rotate(90)"/><path class="cls-22" d="M183.53,377.31a5,5,0,0,1-3.94-8.07l66.5-85.57a5,5,0,0,1,3.94-1.93h0a5,5,0,0,1,3.93,1.9l67.44,85.57a5,5,0,0,1-7.85,6.19l-63.49-80.55-62.58,80.53A5,5,0,0,1,183.53,377.31Z"/><rect class="cls-9" x="239.1" y="422.69" width="4.71" height="61.82"/><circle class="cls-9" cx="249.99" cy="459.11" r="3.07"/><circle class="cls-9" cx="232.59" cy="459.11" r="3.07"/><path class="cls-23" d="M62.6,458.74A62.17,62.17,0,0,0,0,403V527.28A63.57,63.57,0,0,0,7.14,527,62.18,62.18,0,0,0,62.6,458.74Z"/><path class="cls-23" d="M99.26,599.41H219.45a62.17,62.17,0,1,0-120.19,0Z"/><path class="cls-23" d="M131.19,599.41a90.26,90.26,0,0,0,6.92-45.26A90.85,90.85,0,0,0,0,486.22V599.41Z"/><path class="cls-23" d="M600.54,409.06a62.17,62.17,0,0,0,0,112.12Z"/><path class="cls-23" d="M564.75,599.41a62.16,62.16,0,1,0-123.94,0Z"/><path class="cls-23" d="M600.54,528.32c-1.89,0-3.8.11-5.71.31a62.16,62.16,0,0,0-55.46,68.22c.09.86.21,1.71.33,2.56h60.84Z"/><path class="cls-23" d="M600.54,499.22a49,49,0,1,0,0,38.52Z"/><path class="cls-23" d="M374.28,599.41h86.25a49,49,0,1,0-86.25,0Z"/><path class="cls-22" d="M200.56,455.39v5.69a9.8,9.8,0,1,1-19.6,0v-5.69l5.87,3.53,3.93-3.44,3.92,3.44Z"/></g><g id="Layer_6" data-name="Layer 6"><path class="cls-15" d="M174.49,484.35h-9c0-31.21,0-104.3-46.4-141.3l5.61-7C174.49,375.72,174.49,451.84,174.49,484.35Z"/><path class="cls-22" d="M149.39,329.27s13.69-6.23,12.28-16.9-12.48-12.88-17.91-8.86c0,0,3.09-14.89-9.55-20.4-13.86-6.05-23.66,9.54-21.64,14.37,0,0-13.08-16.58-32.81-4.83-11,6.57-15.09,24.55-6.44,33.6,0,0-17.1,4.83-16.3,21.34s16.1,28.57,37.23,22.54S149.39,329.27,149.39,329.27Z"/><circle class="cls-15" cx="87.23" cy="326.72" r="4.22"/><circle class="cls-15" cx="97.7" cy="307.23" r="4.22"/><circle class="cls-15" cx="120.54" cy="303.44" r="4.22"/><polygon class="cls-15" points="117.33 338.96 86.73 328.13 87.73 325.31 114.86 334.9 119.24 302.81 122.21 303.21 117.33 338.96"/><rect class="cls-15" x="105.4" y="304.25" width="3" height="35.27" transform="translate(-152.17 102.97) rotate(-31.43)"/><path class="cls-24" d="M165.39,317.39c15.08,7.71,12.29,34.26-9.45,40.7-8.1,2.4-18.11,0-18.11,0s-1,19.52-23.54,22.52c-15,2-32.81-5-32.81-19.9,0-8.8,6.44-17.13,18.72-15.9,0,0-8.19-20.51,15.09-30,12.44-5.06,23.15,2.22,25.16,7.65C140.45,322.47,149.34,309.19,165.39,317.39Z"/></g></g></svg>