<?xml version="1.0" encoding="utf-8"?>
<!-- Generator: Adobe Illustrator 24.0.1, SVG Export Plug-In . SVG Version: 6.00 Build 0)  -->
<svg version="1.1" id="Layer_1" xmlns="http://www.w3.org/2000/svg" xmlns:xlink="http://www.w3.org/1999/xlink" x="0px" y="0px"
	 viewBox="0 0 500 500" style="enable-background:new 0 0 500 500;" xml:space="preserve">
<style type="text/css">
	.st0{fill:#FFD54C;stroke:#000000;stroke-width:5;stroke-linecap:round;stroke-linejoin:round;}
	.st1{fill:#F6871F;stroke:#000000;stroke-width:5;stroke-linecap:round;stroke-linejoin:round;}
</style>
<title>s</title>
<path class="st0" d="M408,240v74.6c0,68.2-55.2,123.4-123.4,123.4H210c-68.2,0-123.4-55.2-123.5-123.4c0,0,0,0,0,0V240
	c0-46.6,26.2-89.2,67.8-110.2c-4-13.5,0.1-28.6,10.6-33.2c7.2-3.1,14.1,0.6,19.8,6.1c-4.2-14.7-3.8-26.2,10.8-31
	c22-7.3,41.2,31.3,42.3,33.7c-0.8-2.4-12.2-37.2,21-43c29-5,38.9,30.1,38.4,54.7C360.2,123.7,408,176.7,408,240z"/>
<path d="M159,212.4L159,212.4c10.5,0,19,8.5,19,19v30.9c0,10.5-8.5,19-19,19l0,0c-10.5,0-19-8.5-19-19v-30.9
	C140,220.9,148.5,212.4,159,212.4z"/>
<g>
	<path d="M329,276.8c-0.9,0-1.9-0.2-2.8-0.7c-10.3-6-21-11.6-31.3-17c-3.1-1.6-6.3-3.3-9.3-4.9c-0.7-0.3-1.4-0.7-2.1-1.1
		c-0.9-0.5-1.6-1.1-2.1-1.9c0,0,0,0,0,0c0,0,0,0,0,0c0,0,0,0,0,0c0,0,0,0,0,0c0,0,0,0,0,0c0,0,0,0,0,0c0,0,0,0,0,0c0,0,0,0,0,0
		c0,0,0,0,0,0c0,0,0,0,0,0l0,0c-0.2-0.3-0.4-0.7-0.5-1l0,0c0,0,0,0,0,0c0,0,0,0,0,0c0,0,0,0,0,0c0,0,0,0,0,0c0,0,0,0,0,0
		c0,0,0,0,0,0c0,0,0,0,0,0c0,0,0,0,0,0v0c0,0,0,0,0,0c-0.2-0.5-0.3-1-0.3-1.5c0,0,0,0,0,0c0-0.3,0-0.7,0-1c0,0,0,0,0,0c0,0,0,0,0,0
		c0,0,0,0,0,0c0,0,0,0,0,0c0,0,0,0,0,0c0,0,0,0,0,0c0.1-0.6,0.3-1.2,0.6-1.8c0.2-0.4,0.5-0.8,0.8-1.1l0,0c0,0,0,0,0,0c0,0,0,0,0,0
		c0.3-0.3,0.6-0.6,1-0.9c0.1-0.1,0.2-0.1,0.2-0.2c7.1-4.5,13.8-9.4,20.3-14.2c7.1-5.2,14.5-10.5,22.6-15.6c2.6-1.6,6-0.9,7.6,1.7
		c1.6,2.6,0.9,6-1.7,7.6c-7.7,4.9-15,10.1-22,15.2c-4.3,3.1-8.6,6.3-13.1,9.4c1.1,0.6,2.1,1.1,3.2,1.7c10.4,5.5,21.2,11.1,31.7,17.2
		c2.6,1.5,3.5,4.9,2,7.5C332.7,275.8,330.9,276.8,329,276.8z"/>
</g>
<path class="st1" d="M190.1,274.5c0,23,17.7,29.2,45.4,29.2c0,0-50.8,0-50.8,31.1c0,37.7,102.9,39.5,102.9-17s-41-72.2-64-72.2
	S190.1,255.7,190.1,274.5z"/>
</svg>
