<svg id="Layer_1" data-name="Layer 1" xmlns="http://www.w3.org/2000/svg" viewBox="0 0 500 500">
  <defs>
    <style>
      .cls-1 {
        fill: #f15638;
      }

      .cls-1, .cls-2 {
        stroke: #000;
        stroke-linecap: round;
        stroke-linejoin: round;
        stroke-width: 5px;
      }

      .cls-2 {
        fill: #f6871f;
      }
    </style>
  </defs>
  <title>s</title>
  <path class="cls-1" d="M408,240v74.64A123.43,123.43,0,0,1,284.61,438.07H210A123.43,123.43,0,0,1,86.54,314.64V240a123.45,123.45,0,0,1,67.79-110.21c-4-13.48.06-28.6,10.58-33.21,7.16-3.12,14.11.56,19.84,6.08C180.59,88,181,76.49,195.54,71.7c22-7.29,41.18,31.28,42.27,33.74-.75-2.36-12.18-37.17,21-43,29-5,38.92,30.05,38.42,54.73A123.46,123.46,0,0,1,408,240Z"/>
  <path d="M140,239.5v22.81a19,19,0,0,0,38,0V239.5Z"/>
  <path d="M291.08,239.5v22.81a19,19,0,0,0,19,19h0a19,19,0,0,0,19-19V239.5Z"/>
  <path class="cls-2" d="M190.1,274.53c0,23,17.74,29.22,45.41,29.22,0,0-50.82,0-50.82,31.11,0,37.66,102.88,39.48,102.88-17s-41-72.23-64-72.23S190.1,255.72,190.1,274.53Z"/>
  <path d="M144.71,204.1,177.82,220a6.62,6.62,0,0,1,2.64,9.64h0a6.61,6.61,0,0,1-6.83,2.81l-29.86-6.11a6.62,6.62,0,0,1-5-4.4l-3.25-9.76A6.62,6.62,0,0,1,144.71,204.1Z"/>
  <path d="M323.74,204.1,290.64,220a6.62,6.62,0,0,0-2.64,9.64h0a6.61,6.61,0,0,0,6.83,2.81l29.86-6.11a6.62,6.62,0,0,0,4.95-4.4l3.25-9.76A6.62,6.62,0,0,0,323.74,204.1Z"/>
</svg>
