<svg id="Layer_1" data-name="Layer 1" xmlns="http://www.w3.org/2000/svg" viewBox="0 0 500 500">
  <defs>
    <style>
      .cls-1 {
        fill: #b8d53b;
      }

      .cls-1, .cls-2 {
        stroke: #000;
        stroke-linecap: round;
        stroke-linejoin: round;
        stroke-width: 5px;
      }

      .cls-2 {
        fill: #f6871f;
      }
    </style>
  </defs>
  <title>s</title>
  <path class="cls-1" d="M408,240v74.64A123.43,123.43,0,0,1,284.61,438.07H210A123.43,123.43,0,0,1,86.54,314.64V240a123.45,123.45,0,0,1,67.79-110.21c-4-13.48.06-28.6,10.58-33.21,7.16-3.12,14.11.56,19.84,6.08C180.59,88,181,76.49,195.54,71.7c22-7.29,41.18,31.28,42.27,33.74-.75-2.36-12.18-37.17,21-43,29-5,38.92,30.05,38.42,54.73A123.46,123.46,0,0,1,408,240Z"/>
  <path d="M140,240.35v22a19,19,0,0,0,38,0V227Z"/>
  <path d="M326.56,240.35v22a19,19,0,0,1-38,0V227Z"/>
  <path class="cls-2" d="M190.1,274.53c0,23,17.74,29.22,45.41,29.22,0,0-50.82,0-50.82,31.11,0,37.66,102.88,39.48,102.88-17s-41-72.23-64-72.23S190.1,255.72,190.1,274.53Z"/>
  <path d="M134.22,201.41l36.58-3.15a6.62,6.62,0,0,1,7.18,7h0a6.62,6.62,0,0,1-4.46,5.89L144.7,221a6.61,6.61,0,0,1-6.49-1.26L130.45,213A6.62,6.62,0,0,1,134.22,201.41Z"/>
  <path d="M332.37,201.41l-36.58-3.15a6.62,6.62,0,0,0-7.18,7h0a6.62,6.62,0,0,0,4.46,5.89L321.88,221a6.62,6.62,0,0,0,6.5-1.26l7.76-6.76A6.62,6.62,0,0,0,332.37,201.41Z"/>
</svg>
